<?xml version="1.0" encoding="UTF-8"?>
<svg xmlns="http://www.w3.org/2000/svg" version="1" width="450.667" height="450.667" viewBox="0 0 338 338">
   <path fill="#852042" d="M161 65.1c-35.6 4.2-64.9 29.2-75.7 64.6-2.4 7.9-2.6 10.4-2.7 24.3 0 12.9.4 16.8 2.2 23.4 2.9 10.5 8.8 22.4 15.5 31.2l5.4 7.1-2.3 8.5c-6.8 25.6-17.4 42.6-28.7 46l-4.2 1.3 3 .6c1.7.4 7.1.7 12.2.8 22.8.3 31.3-6.3 38.5-29.4 1.7-5.5 3.2-10.1 3.3-10.3.1-.1 3.1 1.1 6.8 2.8 20.4 9.2 45.1 10.5 65.9 3.4 27-9.2 48.2-30.5 56.8-57 3.7-11.5 5.3-24.5 4.5-34.7-1.2-13.5-2.1-13.5-2.1-.1 0 13.6-1.1 20-5.8 31.6-12.4 30.7-43.2 50.4-76.1 48.5-19.7-1.1-35-7.6-48.9-20.8-18.2-17.2-26.5-37.5-25.3-62.3.6-12.7 2.3-20 7.3-30.5 8.4-18 20.9-30.4 38.9-38.7 10.5-4.9 19.2-6.7 32-6.7 10.3 0 15.4.9 28 4.8 1.1.3.3-.3-1.9-1.5-9.6-5.4-32-8.7-46.6-6.9z" />
   <path fill="#f59268" d="M261.1 90c-9 4.7-15.8 5.4-39.6 4.4-11.5-.5-26.2-.8-32.5-.8-28.2.3-42.8 10-51 34-1.1 3.2-2 6.1-2 6.6 0 .6 2.2-1 5-3.5 10.5-9.4 20.9-12.3 41.7-11.4 7.6.4 20.4.9 28.5 1.3 16.6.8 24.1-.3 32.4-4.3 8.5-4.2 17.1-13.7 21.4-23.9 1.1-2.6 1.9-4.8 1.8-4.9-.2-.2-2.8 1-5.7 2.5zM226.6 143.2c-7 4-20 4.7-43.2 2.2-19.3-2.1-34-1.5-41.1 1.6-9.4 4-16.4 13.7-23.8 32.7l-2.8 7.2 4.6 6.4c2.5 3.5 7.2 8.8 10.4 11.7l5.7 5.3 2.2-8.4c3.8-15.1 7.8-21.7 16.3-26.7l4.6-2.7 18.5.2c20.6.3 25.9-.6 34.2-5.8 5.2-3.4 11.3-10.8 15.2-18.6 3.4-6.9 3.3-7.5-.8-5.1z" />
</svg>